<svg xmlns="http://www.w3.org/2000/svg" viewBox="0 0 249.47 249.47"><defs><style>.cls-1{fill:#fff;}</style></defs><g id="Layer_2" data-name="Layer 2"><g id="Layer_1-2" data-name="Layer 1"><path class="cls-1" d="M249.47,124.74A124.74,124.74,0,1,1,124.74,0V18.34a106.4,106.4,0,1,0,106.39,106.4Z"/><path class="cls-1" d="M249.47,61.5V63a7.6,7.6,0,0,1-7.6,7.6H196.28v45a9.18,9.18,0,0,1-9.18,9.18h0a9.18,9.18,0,0,1-9.17-9.18v-45H132.07a7.33,7.33,0,0,1-7.33-7.34V61.5a7.34,7.34,0,0,1,7.33-7.34h45.86v-45A9.18,9.18,0,0,1,187.1,0h0a9.18,9.18,0,0,1,9.18,9.17v45h45.85A7.34,7.34,0,0,1,249.47,61.5Z"/></g></g></svg>